<?xml version="1.0" encoding="UTF-8" standalone="no"?>
<svg
   xmlns:dc="http://purl.org/dc/elements/1.1/"
   xmlns:cc="http://creativecommons.org/ns#"
   xmlns:rdf="http://www.w3.org/1999/02/22-rdf-syntax-ns#"
   xmlns:svg="http://www.w3.org/2000/svg"
   xmlns="http://www.w3.org/2000/svg"
   viewBox="0 0 831.49335 377.94666"
   height="377.94666"
   width="831.49335"
   xml:space="preserve"
   id="svg2"
   version="1.1"><metadata
     id="metadata8"><rdf:RDF><cc:Work
         rdf:about=""><dc:format>image/svg+xml</dc:format><dc:type
           rdf:resource="http://purl.org/dc/dcmitype/StillImage" /><dc:title></dc:title></cc:Work></rdf:RDF></metadata><defs
     id="defs6"><clipPath
       id="clipPath18"
       clipPathUnits="userSpaceOnUse"><path
         id="path16"
         d="M 0,283.46 H 623.62 V 0 H 0 Z" /></clipPath></defs><g
     transform="matrix(1.3333333,0,0,-1.3333333,0,377.94667)"
     id="g10"><g
       transform="translate(1.3982512,12.584261)"
       id="g12"><g
         clip-path="url(#clipPath18)"
         id="g14"><g
           transform="translate(129.8438,86.8291)"
           id="g20"><path
             id="path22"
             style="fill:#262626;fill-opacity:1;fill-rule:nonzero;stroke:none"
             d="M 0,0 C -20.287,10.444 -13.465,29.806 -7.18,52.049 -4.741,60.684 7.539,93.311 5.258,96.617 3.101,99.745 -1.846,100.554 -13.819,86.189 -50.137,42.628 -62.564,10.719 -63.79,9.39 c -0.622,-0.675 -1.927,-1.649 -5.885,-2.943 -5.983,-1.954 -6.887,1.294 -6.758,2.816 0.121,1.437 10.51,14.452 20.514,56.816 8.651,36.637 1.753,41.497 -29.212,37.557 -4.333,-0.553 -9.113,-1.471 -14.218,-2.723 -9.107,-13.514 -14.425,-29.795 -14.425,-47.316 0,-46.821 37.955,-84.776 84.775,-84.776 22.787,0 43.475,8.993 58.707,23.622 C 18.605,-6.655 8.401,-4.327 0,0" /></g><g
           transform="translate(48.3428,197.9985)"
           id="g24"><path
             id="path26"
             style="fill:#8c8c8c;fill-opacity:1;fill-rule:nonzero;stroke:none"
             d="m 0,0 c 17.091,2.347 32.843,3.565 39.976,-9.384 7.132,-12.951 -5.991,-51.672 -5.991,-51.672 5.442,7.881 34.19,45.747 46.994,53.283 11.494,6.763 18.713,5.149 19.24,-0.862 0.528,-6.033 -11.383,-42.615 -17.953,-69.077 -5.864,-23.627 12.825,-31.981 35.551,-33.906 12.152,14.671 19.459,33.505 19.459,54.045 0,46.821 -37.956,84.776 -84.774,84.776 -25.76,0 -48.837,-11.496 -64.385,-29.634 C -7.538,-1.326 -3.512,-0.482 0,0" /></g><g
           transform="translate(129.8438,86.8291)"
           id="g28"><path
             id="path30"
             style="fill:#262626;fill-opacity:1;fill-rule:nonzero;stroke:none"
             d="M 0,0 C -20.287,10.444 -13.465,29.806 -7.18,52.049 -4.741,60.684 7.539,93.311 5.258,96.617 3.101,99.745 -1.846,100.554 -13.819,86.189 -50.137,42.628 -62.564,10.719 -63.79,9.39 c -0.622,-0.675 -1.927,-1.649 -5.885,-2.943 -5.983,-1.954 -6.887,1.294 -6.758,2.816 0.121,1.437 10.51,14.452 20.514,56.816 8.651,36.637 1.753,41.497 -29.212,37.557 -4.333,-0.553 -9.113,-1.471 -14.218,-2.723 -9.107,-13.514 -14.425,-29.795 -14.425,-47.316 0,-46.821 37.955,-84.776 84.775,-84.776 22.787,0 43.475,8.993 58.707,23.622 C 18.605,-6.655 8.401,-4.327 0,0" /></g><g
           transform="translate(48.3428,197.9985)"
           id="g32"><path
             id="path34"
             style="fill:#8c8c8c;fill-opacity:1;fill-rule:nonzero;stroke:none"
             d="m 0,0 c 17.091,2.347 32.843,3.565 39.976,-9.384 7.132,-12.951 -5.991,-51.672 -5.991,-51.672 5.442,7.881 34.19,45.747 46.994,53.283 11.494,6.763 18.713,5.149 19.24,-0.862 0.528,-6.033 -11.383,-42.615 -17.953,-69.077 -5.864,-23.627 12.825,-31.981 35.551,-33.906 12.152,14.671 19.459,33.505 19.459,54.045 0,46.821 -37.956,84.776 -84.774,84.776 -25.76,0 -48.837,-11.496 -64.385,-29.634 C -7.538,-1.326 -3.512,-0.482 0,0" /></g><g
           transform="translate(183.7871,160.7905)"
           id="g36"><path
             id="path38"
             style="fill:#0d0d0d;fill-opacity:1;fill-rule:nonzero;stroke:none"
             d="m 0,0 c -6.079,0 -10.581,-2.56 -13.505,-7.678 -2.331,-4.069 -3.496,-9.37 -3.496,-15.905 0,-13.118 3.518,-22.006 10.557,-26.667 2.559,-1.692 5.644,-2.538 9.255,-2.538 11.288,0 16.933,7.929 16.933,23.789 0,7.816 -1.327,14.236 -3.976,19.264 C 12.385,-3.246 7.13,0 0,0 m 1.783,6.102 c 9.871,0 17.504,-2.88 22.897,-8.639 5.255,-5.621 7.883,-13.414 7.883,-23.377 0,-9.552 -2.834,-17.39 -8.5,-23.514 -5.851,-6.262 -13.505,-9.392 -22.966,-9.392 -9.781,0 -17.39,2.924 -22.828,8.775 -5.348,5.667 -8.021,13.413 -8.021,23.24 0,9.689 2.81,17.55 8.432,23.583 5.803,6.215 13.505,9.324 23.103,9.324" /></g><g
           transform="translate(182.3306,163.8135)"
           id="g40"><path
             id="path42"
             style="fill:#ffffff;fill-opacity:1;fill-rule:nonzero;stroke:none"
             d="m 0,0 0.822,-3.032 c -5.759,-0.174 -10.049,-2.731 -12.87,-7.669 -2.331,-4.069 -3.497,-9.37 -3.497,-15.904 0,-13.119 3.519,-22.007 10.558,-26.668 0.744,-0.493 1.533,-0.913 2.367,-1.262 l -1.409,-3.325 -1.523,-3.215 c -5.985,1.218 -10.893,3.886 -14.723,8.007 -5.348,5.667 -8.021,13.413 -8.021,23.24 0,9.689 2.811,17.55 8.432,23.583 4.951,5.303 11.285,8.344 18.998,9.121 z" /></g><g
           transform="translate(253.5073,160.6533)"
           id="g44"><path
             id="path46"
             style="fill:#0d0d0d;fill-opacity:1;fill-rule:nonzero;stroke:none"
             d="m 0,0 c -7.313,0 -12.043,-4.068 -14.191,-12.203 -0.641,-2.423 -1.052,-4.798 -1.234,-7.13 H 13.231 C 13.643,-6.444 9.231,0 0,0 m -15.562,-24.816 c 0.182,-7.634 1.964,-13.711 5.348,-18.237 3.883,-5.165 9.483,-7.746 16.796,-7.746 5.849,0 11.333,1.599 16.453,4.799 0.181,0.182 0.342,0.228 0.479,0.137 0.091,-0.137 0.206,-0.275 0.343,-0.411 l 1.988,-3.428 c 0.091,-0.411 -0.046,-0.732 -0.411,-0.96 -7.998,-5.347 -16.088,-8.021 -24.268,-8.021 -9.142,0 -16.34,2.833 -21.595,8.501 -5.166,5.485 -7.747,12.82 -7.747,22.006 0,9.414 2.513,17.344 7.541,23.789 5.485,7.083 12.796,10.626 21.938,10.626 8.089,0 14.235,-2.309 18.441,-6.925 4.067,-4.479 6.101,-10.786 6.101,-18.92 0,-1.464 -0.092,-2.972 -0.274,-4.525 0,-0.458 -0.229,-0.685 -0.686,-0.685 z" /></g><g
           transform="translate(289.5674,163.3271)"
           id="g48"><path
             id="path50"
             style="fill:#0d0d0d;fill-opacity:1;fill-rule:nonzero;stroke:none"
             d="m 0,0 16.864,2.811 c 0.549,0.09 1.029,0.137 1.44,0.137 h 3.359 c 0.456,0 0.686,-0.23 0.686,-0.686 v -6.033 c 6.763,5.073 13.549,7.61 20.36,7.61 6.9,0 11.997,-2.994 15.288,-8.981 6.764,5.576 14.076,8.364 21.938,8.364 11.973,0 17.961,-6.787 17.961,-20.361 v -35.648 c 0,-0.458 0.228,-0.686 0.685,-0.686 l 9.118,-0.96 c 0.502,0 0.754,-0.252 0.754,-0.754 v -3.496 c 0,-0.458 -0.252,-0.685 -0.754,-0.685 H 77.672 c -0.457,0 -0.686,0.227 -0.686,0.685 v 3.496 c 0,0.502 0.229,0.754 0.686,0.754 l 8.158,0.96 c 0.456,0 0.686,0.228 0.686,0.686 v 31.466 c 0,10.1 -4.296,15.151 -12.888,15.151 -5.394,0 -10.078,-1.258 -14.054,-3.77 0.365,-1.464 0.548,-3.565 0.548,-6.308 v -36.539 c 0,-0.458 0.229,-0.686 0.686,-0.686 l 8.158,-0.96 c 0.456,0 0.685,-0.252 0.685,-0.754 v -3.496 c 0,-0.458 -0.229,-0.685 -0.685,-0.685 H 39.898 c -0.457,0 -0.685,0.227 -0.685,0.685 v 3.496 c 0,0.502 0.228,0.754 0.685,0.754 l 8.159,0.96 c 0.456,0 0.685,0.228 0.685,0.686 v 32.152 c 0,10.1 -4.113,15.151 -12.34,15.151 -4.617,0 -9.073,-1.075 -13.368,-3.223 -0.183,-0.092 -0.411,-0.274 -0.685,-0.548 v -43.532 c 0,-0.458 0.228,-0.686 0.685,-0.686 l 8.158,-0.96 c 0.456,0 0.686,-0.252 0.686,-0.754 v -3.496 c 0,-0.458 -0.23,-0.685 -0.686,-0.685 H 0.479 c -0.503,0 -0.753,0.227 -0.753,0.685 v 3.496 c 0,0.502 0.25,0.754 0.753,0.754 l 9.804,0.96 c 0.456,0 0.686,0.228 0.686,0.686 v 46.343 c 0,0.456 -0.23,0.685 -0.686,0.685 L 0.206,-4.593 c -0.504,0 -0.755,0.228 -0.755,0.685 v 3.222 C -0.549,-0.229 -0.367,0 0,0" /></g><g
           transform="translate(438.6738,133.1631)"
           id="g52"><path
             id="path54"
             style="fill:#0d0d0d;fill-opacity:1;fill-rule:nonzero;stroke:none"
             d="m 0,0 c -4.799,-0.274 -8.41,-0.801 -10.832,-1.577 -0.641,-0.183 -1.76,-0.548 -3.359,-1.097 -4.845,-1.645 -7.267,-5.256 -7.267,-10.832 0,-5.987 2.993,-8.98 8.98,-8.98 1.737,0 3.84,0.433 6.308,1.302 1.233,0.456 3.062,1.303 5.484,2.537 0.457,0.319 0.686,0.593 0.686,0.823 z m 0.96,-23.034 c -5.897,-5.44 -12.295,-8.158 -19.195,-8.158 -7.176,0 -12.022,2.947 -14.535,8.843 -0.822,1.919 -1.233,3.976 -1.233,6.17 0,7.723 3.93,13.391 11.791,17.001 2.376,1.097 4.799,1.897 7.267,2.4 C -9.461,4.363 -4.479,5.118 0,5.484 v 10.832 c 0,7.267 -3.565,10.9 -10.694,10.9 -4.069,0 -7.611,-0.732 -10.626,-2.194 -0.275,-0.229 -0.504,-0.617 -0.686,-1.165 l -1.988,-10.352 c 0,-0.411 -0.23,-0.617 -0.686,-0.617 h -4.387 c -0.457,0 -0.686,0.206 -0.686,0.617 v 15.562 c 0,0.274 0.229,0.502 0.686,0.685 7.404,2.65 14.419,3.977 21.046,3.977 9.369,0 15.447,-2.811 18.236,-8.433 1.051,-2.102 1.576,-4.776 1.576,-8.02 v -37.911 c 0,-0.367 0.183,-0.64 0.549,-0.823 l 8.844,-2.536 c 0.456,-0.275 0.708,-0.504 0.754,-0.686 v -2.399 c -0.184,-0.504 -0.389,-0.754 -0.618,-0.754 L 2.811,-30.302 c -0.457,0 -0.686,0.23 -0.686,0.686 z" /></g><g
           transform="translate(473.499,157.1572)"
           id="g56"><path
             id="path58"
             style="fill:#0d0d0d;fill-opacity:1;fill-rule:nonzero;stroke:none"
             d="m 0,0 c 0,0.456 -0.251,0.686 -0.754,0.686 h -8.089 c -0.412,0 -0.617,0.205 -0.617,0.616 v 0.686 c 0,0.274 0.159,0.549 0.48,0.823 L 8.981,20.909 c 0.412,0.411 0.777,0.617 1.097,0.617 h 0.686 c 0.411,0 0.617,-0.252 0.617,-0.754 V 7.884 c 0,-0.458 0.227,-0.686 0.685,-0.686 h 18.647 c 0.456,0 0.685,-0.252 0.685,-0.754 V 1.439 c 0,-0.503 -0.229,-0.753 -0.685,-0.753 H 12.066 C 11.608,0.686 11.381,0.456 11.381,0 v -37.362 c 0,-6.719 2.992,-10.078 8.98,-10.078 4.388,0 7.929,1.12 10.626,3.359 0.182,0.183 0.411,0.251 0.686,0.206 0.181,-0.046 0.343,-0.115 0.479,-0.206 l 1.783,-3.496 c 0.091,-0.411 -0.046,-0.732 -0.412,-0.96 -3.61,-2.423 -6.717,-4.068 -9.323,-4.936 -3.473,-1.141 -7.016,-1.714 -10.626,-1.714 -3.839,0 -7.061,1.19 -9.666,3.565 C 1.303,-49.246 0,-46.161 0,-42.367 Z" /></g><g
           transform="translate(528.96,199.1812)"
           id="g60"><path
             id="path62"
             style="fill:#0d0d0d;fill-opacity:1;fill-rule:nonzero;stroke:none"
             d="m 0,0 c 2.194,0 3.999,-0.697 5.416,-2.091 1.416,-1.395 2.125,-3.188 2.125,-5.382 0,-2.193 -0.709,-3.987 -2.125,-5.381 -1.417,-1.395 -3.222,-2.091 -5.416,-2.091 -2.193,0 -4.01,0.696 -5.45,2.091 -1.44,1.394 -2.159,3.188 -2.159,5.381 0,2.194 0.719,3.987 2.159,5.382 C -4.01,-0.697 -2.193,0 0,0 m -15.425,-95.222 c -0.503,0 -0.754,0.227 -0.754,0.685 v 3.496 c 0,0.502 0.251,0.754 0.754,0.754 l 9.804,0.96 c 0.456,0 0.685,0.228 0.685,0.686 v 46.343 c 0,0.456 -0.229,0.685 -0.685,0.685 l -10.147,1.166 c -0.457,0 -0.685,0.228 -0.685,0.685 v 3.222 c 0,0.457 0.182,0.686 0.549,0.686 l 16.864,2.811 c 0.182,0.044 0.456,0.09 0.822,0.137 h 3.977 c 0.456,0 0.685,-0.23 0.685,-0.686 v -55.049 c 0,-0.458 0.229,-0.686 0.686,-0.686 l 9.118,-0.96 c 0.502,0 0.754,-0.252 0.754,-0.754 v -3.496 c 0,-0.458 -0.252,-0.685 -0.754,-0.685 z" /></g><g
           transform="translate(585.7236,166.8921)"
           id="g64"><path
             id="path66"
             style="fill:#0d0d0d;fill-opacity:1;fill-rule:nonzero;stroke:none"
             d="m 0,0 c 6.489,0 12.614,-1.097 18.372,-3.291 0.457,-0.183 0.686,-0.411 0.686,-0.686 v -16.247 c 0,-0.411 -0.229,-0.617 -0.686,-0.617 h -4.387 c -0.458,0 -0.685,0.206 -0.685,0.617 l -2.263,10.626 c 0,0.274 -0.183,0.571 -0.549,0.891 -3.93,1.828 -7.587,2.743 -10.968,2.743 -6.033,0 -10.832,-2.469 -14.397,-7.404 -3.199,-4.434 -4.799,-9.781 -4.799,-16.043 0,-7.814 1.714,-14.19 5.142,-19.126 3.93,-5.668 9.642,-8.501 17.138,-8.501 5.577,0 10.877,1.691 15.906,5.074 0.274,0.181 0.456,0.227 0.548,0.136 0.091,-0.091 0.182,-0.229 0.274,-0.411 l 1.988,-3.428 c 0.182,-0.32 0.045,-0.64 -0.411,-0.959 -7.999,-5.531 -15.813,-8.295 -23.446,-8.295 -9.095,0 -16.316,2.833 -21.663,8.501 -5.302,5.529 -7.952,12.864 -7.952,22.005 0,9.598 2.923,17.687 8.775,24.269 C -17.3,-3.383 -9.507,0 0,0" /></g></g></g></g></svg>