<?xml version="1.0" encoding="utf-8"?>
<!-- Generator: Adobe Illustrator 14.0.0, SVG Export Plug-In . SVG Version: 6.00 Build 43363)  -->
<!DOCTYPE svg PUBLIC "-//W3C//DTD SVG 1.1//EN" "http://www.w3.org/Graphics/SVG/1.1/DTD/svg11.dtd">
<svg version="1.1" id="Calque_1" xmlns="http://www.w3.org/2000/svg" xmlns:xlink="http://www.w3.org/1999/xlink" x="0px" y="0px"
	 width="500px" height="150.39px" viewBox="0 0 500 150.39" enable-background="new 0 0 500 150.39" xml:space="preserve">
<g>
	<g>
		<g>
			<g>
				<path fill="#262626" d="M92.972,113.892c-15.027-7.736-9.975-22.078-5.318-38.555c1.807-6.396,10.902-30.564,9.213-33.014
					c-1.598-2.316-5.262-2.916-14.131,7.725c-26.902,32.268-36.107,55.904-37.016,56.889c-0.461,0.5-1.428,1.221-4.359,2.18
					c-4.432,1.447-5.102-0.959-5.006-2.086c0.09-1.064,7.785-10.705,15.195-42.086c6.408-27.139,1.299-30.738-21.639-27.82
					c-3.209,0.41-6.75,1.09-10.531,2.018c-6.746,10.01-10.686,22.07-10.686,35.049c0,34.682,28.115,62.797,62.797,62.797
					c16.879,0,32.203-6.662,43.486-17.498C106.753,118.822,99.194,117.097,92.972,113.892z"/>
				<path fill="#8C8C8C" d="M32.601,31.544c12.66-1.738,24.328-2.641,29.611,6.951c5.283,9.594-4.438,38.275-4.438,38.275
					c4.031-5.838,25.326-33.887,34.811-39.469c8.514-5.01,13.861-3.814,14.252,0.639c0.391,4.469-8.432,31.566-13.299,51.168
					c-4.344,17.502,9.5,23.689,26.334,25.115c9.002-10.867,14.414-24.818,14.414-40.033c0-34.682-28.115-62.797-62.795-62.797
					c-19.082,0-36.176,8.516-47.693,21.951C27.017,32.527,29.999,31.902,32.601,31.544z"/>
			</g>
		</g>
	</g>
	<g>
		<path fill="#0D0D0D" d="M134.25,54.586c7.313,0,12.966,2.133,16.961,6.398c3.893,4.164,5.84,9.937,5.84,17.316
			c0,7.076-2.1,12.882-6.297,17.418c-4.334,4.639-10.004,6.957-17.012,6.957c-7.245,0-12.882-2.166-16.91-6.5
			c-3.961-4.197-5.941-9.936-5.941-17.215c0-7.177,2.082-13,6.246-17.469C121.436,56.889,127.141,54.586,134.25,54.586z
			 M132.93,59.106c-4.503,0-7.838,1.896-10.004,5.688c-1.727,3.014-2.59,6.94-2.59,11.781c0,9.717,2.606,16.301,7.82,19.754
			c1.896,1.253,4.181,1.879,6.855,1.879c8.361,0,12.543-5.873,12.543-17.621c0-5.789-0.982-10.545-2.945-14.27
			C142.104,61.51,138.211,59.106,132.93,59.106z"/>
		<path fill="#0D0D0D" d="M173.047,77.59c0.135,5.654,1.455,10.156,3.961,13.508c2.877,3.826,7.024,5.738,12.441,5.738
			c4.333,0,8.396-1.185,12.188-3.555c0.135-0.135,0.254-0.169,0.355-0.102c0.067,0.102,0.152,0.203,0.254,0.305l1.473,2.539
			c0.067,0.305-0.034,0.542-0.305,0.711c-5.925,3.961-11.917,5.941-17.977,5.941c-6.771,0-12.104-2.099-15.996-6.297
			c-3.826-4.063-5.738-9.496-5.738-16.301c0-6.974,1.861-12.848,5.586-17.621c4.063-5.247,9.479-7.871,16.25-7.871
			c5.992,0,10.545,1.71,13.66,5.129c3.013,3.318,4.52,7.99,4.52,14.016c0,1.084-0.068,2.201-0.203,3.352
			c0,0.339-0.17,0.508-0.508,0.508H173.047z M184.574,59.208c-5.417,0-8.921,3.014-10.512,9.039
			c-0.475,1.795-0.779,3.555-0.914,5.281h21.227C194.68,63.981,191.412,59.208,184.574,59.208z"/>
		<path fill="#0D0D0D" d="M211.285,57.227l12.492-2.082c0.406-0.067,0.762-0.102,1.066-0.102h2.488c0.338,0,0.508,0.17,0.508,0.508
			v4.469c5.01-3.758,10.037-5.637,15.082-5.637c5.111,0,8.887,2.218,11.324,6.652c5.01-4.13,10.427-6.195,16.25-6.195
			c8.869,0,13.305,5.027,13.305,15.082v26.406c0,0.339,0.169,0.508,0.508,0.508l6.754,0.711c0.372,0,0.559,0.187,0.559,0.559v2.59
			c0,0.339-0.187,0.508-0.559,0.508H268.82c-0.339,0-0.508-0.169-0.508-0.508v-2.59c0-0.372,0.169-0.559,0.508-0.559l6.043-0.711
			c0.338,0,0.508-0.169,0.508-0.508V73.02c0-7.481-3.183-11.223-9.547-11.223c-3.995,0-7.465,0.932-10.41,2.793
			c0.271,1.084,0.406,2.641,0.406,4.672v27.066c0,0.339,0.169,0.508,0.508,0.508l6.043,0.711c0.338,0,0.508,0.187,0.508,0.559v2.59
			c0,0.339-0.17,0.508-0.508,0.508H240.84c-0.339,0-0.508-0.169-0.508-0.508v-2.59c0-0.372,0.169-0.559,0.508-0.559l6.043-0.711
			c0.338,0,0.508-0.169,0.508-0.508V72.512c0-7.481-3.047-11.223-9.141-11.223c-3.42,0-6.721,0.796-9.902,2.387
			c-0.136,0.068-0.305,0.203-0.508,0.406v32.246c0,0.339,0.169,0.508,0.508,0.508l6.043,0.711c0.338,0,0.508,0.187,0.508,0.559v2.59
			c0,0.339-0.17,0.508-0.508,0.508h-22.75c-0.373,0-0.559-0.169-0.559-0.508v-2.59c0-0.372,0.186-0.559,0.559-0.559l7.262-0.711
			c0.338,0,0.508-0.169,0.508-0.508V62c0-0.338-0.17-0.508-0.508-0.508l-7.465-0.863c-0.373,0-0.559-0.169-0.559-0.508v-2.387
			C210.879,57.397,211.014,57.227,211.285,57.227z"/>
		<path fill="#0D0D0D" d="M322.445,96.633c-4.367,4.029-9.107,6.043-14.219,6.043c-5.315,0-8.904-2.184-10.766-6.551
			c-0.609-1.422-0.914-2.945-0.914-4.57c0-5.721,2.911-9.919,8.734-12.594c1.76-0.813,3.555-1.404,5.383-1.777
			c4.063-0.846,7.752-1.404,11.07-1.676v-8.023c0-5.383-2.641-8.074-7.922-8.074c-3.014,0-5.637,0.542-7.871,1.625
			c-0.203,0.17-0.373,0.457-0.508,0.863l-1.473,7.668c0,0.305-0.17,0.457-0.508,0.457h-3.25c-0.339,0-0.508-0.152-0.508-0.457V58.04
			c0-0.203,0.169-0.372,0.508-0.508c5.484-1.963,10.681-2.945,15.59-2.945c6.939,0,11.442,2.082,13.508,6.246
			c0.778,1.558,1.168,3.538,1.168,5.941v28.082c0,0.271,0.135,0.475,0.406,0.609l6.551,1.879c0.338,0.203,0.524,0.373,0.559,0.508
			v1.777c-0.136,0.373-0.288,0.559-0.457,0.559l-13.711,1.828c-0.339,0-0.508-0.17-0.508-0.508L322.445,96.633z M321.734,79.571
			c-3.555,0.203-6.229,0.593-8.023,1.168c-0.475,0.136-1.304,0.406-2.488,0.813c-3.589,1.219-5.383,3.894-5.383,8.023
			c0,4.436,2.217,6.652,6.652,6.652c1.286,0,2.844-0.321,4.672-0.965c0.914-0.338,2.268-0.965,4.063-1.879
			c0.338-0.236,0.508-0.439,0.508-0.609V79.571z"/>
		<path fill="#0D0D0D" d="M347.531,61.797c0-0.338-0.187-0.508-0.559-0.508h-5.992c-0.305,0-0.457-0.152-0.457-0.457v-0.508
			c0-0.203,0.118-0.406,0.355-0.609l13.305-13.406c0.305-0.305,0.575-0.457,0.813-0.457h0.508c0.305,0,0.457,0.187,0.457,0.559
			v9.547c0,0.339,0.169,0.508,0.508,0.508h13.813c0.338,0,0.508,0.187,0.508,0.559v3.707c0,0.373-0.17,0.559-0.508,0.559h-13.813
			c-0.339,0-0.508,0.17-0.508,0.508v27.676c0,4.977,2.217,7.465,6.652,7.465c3.25,0,5.873-0.829,7.871-2.488
			c0.135-0.135,0.305-0.186,0.508-0.152c0.135,0.034,0.254,0.085,0.355,0.152l1.32,2.59c0.067,0.305-0.034,0.542-0.305,0.711
			c-2.675,1.795-4.977,3.014-6.906,3.656c-2.573,0.846-5.197,1.27-7.871,1.27c-2.844,0-5.23-0.881-7.16-2.641
			s-2.895-4.045-2.895-6.855V61.797z"/>
		<path fill="#0D0D0D" d="M377.188,101.204c-0.373,0-0.559-0.169-0.559-0.508v-2.59c0-0.372,0.186-0.559,0.559-0.559l7.262-0.711
			c0.338,0,0.508-0.169,0.508-0.508V62c0-0.338-0.17-0.508-0.508-0.508l-7.516-0.863c-0.339,0-0.508-0.169-0.508-0.508v-2.387
			c0-0.338,0.135-0.508,0.406-0.508l12.492-2.082c0.135-0.033,0.338-0.067,0.609-0.102h2.945c0.338,0,0.508,0.17,0.508,0.508v40.777
			c0,0.339,0.169,0.508,0.508,0.508l6.754,0.711c0.372,0,0.559,0.187,0.559,0.559v2.59c0,0.339-0.187,0.508-0.559,0.508H377.188z
			 M388.613,30.668c1.625,0,2.962,0.517,4.012,1.549c1.049,1.033,1.574,2.361,1.574,3.986s-0.525,2.954-1.574,3.986
			c-1.05,1.033-2.387,1.549-4.012,1.549s-2.971-0.516-4.037-1.549c-1.066-1.032-1.6-2.361-1.6-3.986s0.533-2.953,1.6-3.986
			C385.643,31.185,386.988,30.668,388.613,30.668z"/>
		<path fill="#0D0D0D" d="M430.66,54.586c4.807,0,9.344,0.813,13.609,2.438c0.338,0.136,0.508,0.305,0.508,0.508v12.035
			c0,0.305-0.17,0.457-0.508,0.457h-3.25c-0.339,0-0.508-0.152-0.508-0.457l-1.676-7.871c0-0.203-0.136-0.423-0.406-0.66
			c-2.912-1.354-5.62-2.031-8.125-2.031c-4.469,0-8.023,1.828-10.664,5.484c-2.37,3.284-3.555,7.245-3.555,11.883
			c0,5.789,1.27,10.512,3.809,14.168c2.911,4.198,7.143,6.297,12.695,6.297c4.13,0,8.057-1.252,11.781-3.758
			c0.203-0.135,0.338-0.169,0.406-0.102c0.067,0.068,0.135,0.17,0.203,0.305l1.473,2.539c0.135,0.237,0.033,0.475-0.305,0.711
			c-5.925,4.097-11.714,6.145-17.367,6.145c-6.737,0-12.086-2.099-16.047-6.297c-3.928-4.096-5.891-9.529-5.891-16.301
			c0-7.109,2.166-13.102,6.5-17.977C417.846,57.092,423.618,54.586,430.66,54.586z"/>
	</g>
</g>
</svg>
