<?xml version="1.0" encoding="UTF-8" standalone="no"?>
<!-- Created with Inkscape (http://www.inkscape.org/) -->

<svg
   xmlns:dc="http://purl.org/dc/elements/1.1/"
   xmlns:cc="http://creativecommons.org/ns#"
   xmlns:rdf="http://www.w3.org/1999/02/22-rdf-syntax-ns#"
   xmlns:svg="http://www.w3.org/2000/svg"
   xmlns="http://www.w3.org/2000/svg"
   xmlns:sodipodi="http://sodipodi.sourceforge.net/DTD/sodipodi-0.dtd"
   xmlns:inkscape="http://www.inkscape.org/namespaces/inkscape"
   id="svg2"
   version="1.1"
   inkscape:version="0.48.0 r9654"
   width="154"
   height="241.16035"
   xml:space="preserve"
   sodipodi:docname="WirelessPowerLogoLicenseAgreement.pdf"><metadata
     id="metadata8"><rdf:RDF><cc:Work
         rdf:about=""><dc:format>image/svg+xml</dc:format><dc:type
           rdf:resource="http://purl.org/dc/dcmitype/StillImage" /><dc:title></dc:title></cc:Work></rdf:RDF></metadata><defs
     id="defs6"><clipPath
       clipPathUnits="userSpaceOnUse"
       id="clipPath92"><path
         d="m 425.681,597.248 -251.681,0 0,-396.248 251.681,0 0,396.248 z"
         id="path94"
         inkscape:connector-curvature="0" /></clipPath></defs><sodipodi:namedview
     pagecolor="#ffffff"
     bordercolor="#666666"
     borderopacity="1"
     objecttolerance="10"
     gridtolerance="10"
     guidetolerance="10"
     inkscape:pageopacity="0"
     inkscape:pageshadow="2"
     inkscape:window-width="1280"
     inkscape:window-height="666"
     id="namedview4"
     showgrid="false"
     fit-margin-top="5"
     fit-margin-left="2"
     fit-margin-right="2"
     fit-margin-bottom="0"
     inkscape:zoom="0.26464646"
     inkscape:cx="167"
     inkscape:cy="243.74894"
     inkscape:window-x="0"
     inkscape:window-y="0"
     inkscape:window-maximized="0"
     inkscape:current-layer="g10" /><g
     id="g10"
     inkscape:groupmode="layer"
     inkscape:label="WirelessPowerLogoLicenseAgreement"
     transform="matrix(1.25,0,0,-1.25,-215.5,492.41141)"><g
       id="g3083"
       transform="matrix(0.47679404,0,0,0.47679404,91.037838,105.16484)"><g
         id="g88"><g
           clip-path="url(#clipPath92)"
           id="g90"><g
             transform="translate(301.465,497.02)"
             id="g96"><path
               id="path98"
               style="fill:#231f20;fill-opacity:1;fill-rule:nonzero;stroke:none"
               d="m 0,0 0,-145.618 c 0,0 0,-2.715 -2.721,-2.715 -21.16,0.317 -42.072,9.468 -56.741,26.96 -26.805,31.965 -22.637,79.609 9.305,106.433 C -36.304,-3.306 -19.495,2.477 -2.721,2.711 0,2.711 0,0 0,0 z m 0,-203.505 0,-43.751 c 0,0 0.003,-45.609 43.838,-48.759 4.871,-0.169 4.871,4.871 4.871,4.871 l 0,328.87 c 0,0 0,4.86 -4.868,6.854 -41.38,16.007 -89.965,9.612 -126.353,-20.939 -53.237,-44.695 -60.182,-124.116 -15.512,-177.385 24.118,-28.759 58.355,-44.006 93.129,-44.921 4.895,0 4.895,-4.84 4.895,-4.84"
               inkscape:connector-curvature="0" /></g><g
             transform="translate(375.338,516.23)"
             id="g100"><path
               id="path102"
               style="fill:#231f20;fill-opacity:1;fill-rule:nonzero;stroke:none"
               d="m 0,0 0,-184.033 c 0,-4.856 0,-8.696 4.864,-4.879 0.172,0.151 0.348,0.291 0.525,0.441 C 58.628,-143.776 65.574,-64.356 20.9,-11.09 15.959,-5.196 10.586,0.115 4.872,4.857 0,8.708 0,4.829 0,0"
               inkscape:connector-curvature="0" /></g></g></g><g
         transform="translate(350.154,572.074)"
         id="g104"><path
           id="path106"
           style="fill:#231f20;fill-opacity:1;fill-rule:nonzero;stroke:none"
           d="M 0,0 C 0,13.904 11.268,25.174 25.165,25.174 39.061,25.174 50.324,13.904 50.324,0 50.324,-13.908 39.061,-25.178 25.165,-25.178 11.268,-25.178 0,-13.908 0,0"
           inkscape:connector-curvature="0" /></g></g></g></svg>