<?xml version="1.0" encoding="utf-8"?>
<!-- Generator: Adobe Illustrator 14.0.0, SVG Export Plug-In . SVG Version: 6.00 Build 43363)  -->
<!DOCTYPE svg PUBLIC "-//W3C//DTD SVG 1.1//EN" "http://www.w3.org/Graphics/SVG/1.1/DTD/svg11.dtd">
<svg version="1.1" id="Calque_1" xmlns="http://www.w3.org/2000/svg" xmlns:xlink="http://www.w3.org/1999/xlink" x="0px" y="0px"
	 width="623.62px" height="850.39px" viewBox="0 0 623.62 850.39" enable-background="new 0 0 623.62 850.39" xml:space="preserve">
<g>
	<g>
		<g>
			<path fill="#262626" d="M332.972,464.893c-15.027-7.736-9.975-22.078-5.318-38.555c1.807-6.397,10.902-30.565,9.213-33.014
				c-1.598-2.316-5.262-2.916-14.131,7.725c-26.902,32.268-36.107,55.905-37.016,56.889c-0.461,0.5-1.428,1.221-4.359,2.18
				c-4.432,1.447-5.102-0.959-5.006-2.086c0.09-1.064,7.785-10.705,15.195-42.086c6.408-27.139,1.299-30.738-21.639-27.82
				c-3.209,0.41-6.75,1.09-10.531,2.018c-6.746,10.01-10.686,22.07-10.686,35.049c0,34.682,28.115,62.797,62.797,62.797
				c16.879,0,32.203-6.662,43.486-17.498C346.753,469.822,339.194,468.098,332.972,464.893z"/>
			<path fill="#8C8C8C" d="M272.601,382.544c12.66-1.738,24.328-2.641,29.611,6.951c5.283,9.594-4.438,38.276-4.438,38.276
				c4.031-5.838,25.326-33.887,34.811-39.469c8.514-5.01,13.861-3.814,14.252,0.639c0.391,4.469-8.432,31.566-13.299,51.168
				c-4.344,17.502,9.5,23.689,26.334,25.115c9.002-10.867,14.414-24.818,14.414-40.034c0-34.682-28.115-62.797-62.795-62.797
				c-19.082,0-36.176,8.516-47.693,21.951C267.017,383.527,269.999,382.902,272.601,382.544z"/>
		</g>
	</g>
</g>
</svg>
