<?xml version="1.0" encoding="utf-8"?>
<!-- Generator: Adobe Illustrator 14.0.0, SVG Export Plug-In . SVG Version: 6.00 Build 43363)  -->
<!DOCTYPE svg PUBLIC "-//W3C//DTD SVG 1.1//EN" "http://www.w3.org/Graphics/SVG/1.1/DTD/svg11.dtd">
<svg version="1.1" id="Calque_1" xmlns="http://www.w3.org/2000/svg" xmlns:xlink="http://www.w3.org/1999/xlink" x="0px" y="0px"
	 width="180px" height="180px" viewBox="0 0 180 180" enable-background="new 0 0 180 180" xml:space="preserve">
<g>
	<path fill="#1A171B" d="M78.85,116.482c-3.507,1.314-9.117,2.281-13.762,2.281c-25.683,0-35.675-19.021-35.675-34.802
		c0-14.288,10.255-33.922,35.938-33.922c20.949,0,35.499,12.709,35.499,33.221c0,15.429-9.729,25.16-15.252,28.839l17.619,9.029
		c18.494,9.467,30.152,10.432,36.113,10.432c4.559,0,11.043-0.703,17.092-3.07c0.527-0.174,0.965-0.438,1.314-0.438
		c0.439,0,0.789,0.352,0.789,0.789c0,0.525-0.438,0.789-1.051,1.053c-5.258,2.541-15.164,6.574-27.787,6.574
		c-13.236,0-22.615-3.42-37.076-11.922L78.85,116.482z M88.579,85.626c0-21.212-13.149-31.379-25.245-31.379
		c-11.483,0-21.738,7.362-21.738,27.698c0,20.863,12.622,32.434,26.735,32.434C75.343,114.379,88.579,111.311,88.579,85.626z"/>
	<path fill="#1A171B" d="M117.854,82.734c0-11.308,0-13.411-0.088-15.778c-0.176-2.542-0.963-3.418-2.629-3.945
		c-0.877-0.263-1.84-0.35-2.805-0.35c-0.789,0-1.227-0.176-1.227-0.876c0-0.438,0.613-0.614,1.84-0.614
		c2.893,0,8.152,0.175,10.344,0.175c1.928,0,6.924-0.175,9.904-0.175c0.965,0,1.578,0.175,1.578,0.614
		c0,0.701-0.438,0.876-1.227,0.876s-1.402,0.087-2.279,0.263c-2.104,0.351-2.719,1.402-2.893,4.032
		c-0.176,2.367-0.176,4.47-0.176,15.778v13.148c0,7.189,0,13.148,0.35,16.305c0.264,2.018,0.791,3.156,3.068,3.506
		c1.053,0.176,2.805,0.264,3.945,0.264c0.875,0,1.227,0.438,1.227,0.787c0,0.527-0.613,0.789-1.49,0.789
		c-5.084,0-10.344-0.262-12.447-0.262c-1.752,0-7.012,0.262-10.078,0.262c-0.965,0-1.49-0.262-1.49-0.789
		c0-0.35,0.262-0.787,1.227-0.787c1.139,0,2.016-0.088,2.717-0.264c1.578-0.35,2.016-1.402,2.279-3.594
		c0.35-3.068,0.35-9.027,0.35-16.217V82.734z"/>
</g>
</svg>
